<?xml version="1.0" encoding="utf-8"?>
<svg version="1.1" id="Слой_1" x="0px" y="0px" viewBox="0 0 16 16" style="enable-background:new 0 0 16 16;" xmlns="http://www.w3.org/2000/svg">
  <style type="text/css">
	.st0{fill:#2159D1;}
</style>
  <g style="" transform="matrix(1, 0, 0, 0.972538, 0, 0.219014)">
    <path class="st0" d="M4.6,13.5c0.2,0.1,0.5,0.3,0.7,0.5c0.1,0.1,0.1,0.1,0.2,0c0.1-0.2,0.3-0.3,0.4-0.5c0,0,0.1-0.1,0.1-0.1 c-0.1,0.1-0.1,0.2-0.2,0.3c-0.1,0.2-0.2,0.3-0.3,0.5c0,0.1,0,0.1,0.1,0.2c0.1,0,0.1,0,0.2,0C5.9,14.1,6,14,6,14 C6,14,5.9,14.2,5.8,14.3c0,0.1,0,0.1,0,0.2c0.3,0.2,0.6,0.5,0.8,0.8c0.2,0.3,0.5,0.4,0.8,0.6c0.4,0.2,0.7,0.2,1.1,0 c0.2-0.1,0.4-0.2,0.5-0.3c0.1,0,0.1-0.1,0.2-0.2c0,0,0-0.1,0-0.1c0,0,0-0.1-0.1-0.1c0,0,0.1,0.1,0.1,0.1c0,0.1,0.1,0,0.1,0 c0,0,0,0,0,0c0.1-0.1,0.1-0.1,0-0.3c-0.1-0.1-0.2-0.3-0.3-0.4c0.1,0.1,0.3,0.2,0.4,0.4c0,0,0.1,0,0.1,0c0.2-0.2,0.5-0.4,0.8-0.6 c0.3-0.2,0.5-0.4,0.8-0.6c0.5-0.3,0.7-0.7,0.9-1.2c0.1-0.3,0.2-0.6,0.2-1c0.1-0.4,0.2-0.7,0.5-1c0.1-0.1,0.1-0.2,0-0.3 c-0.1-0.1-0.1-0.3-0.1-0.4c0,0,0,0,0,0c0.1,0.1,0.1,0.2,0.2,0.4c0,0,0,0,0,0.1c0,0,0.1,0,0.1,0c0,0,0.1-0.1,0.1-0.1 c0,0,0-0.1,0-0.1c-0.1-0.2-0.1-0.3-0.2-0.5c0,0,0,0-0.1,0c0,0,0,0,0,0c0.1,0,0.2,0.1,0.2,0.1c0,0.1,0.1,0.1,0.1,0.2 c0,0.1,0.1,0.1,0.1,0c0.1-0.1,0.2-0.2,0.3-0.4c0-0.1,0-0.1,0.1-0.2C14,9.1,14,8.8,14.1,8.6c0-0.3,0.1-0.7,0.1-1 c0-0.2,0-0.3-0.1-0.5c-0.1-0.2-0.1-0.4-0.3-0.5c0,0,0-0.1,0-0.1c-0.3-0.1-0.5-0.2-0.8-0.2c-0.1,0-0.1,0-0.1,0.1 c-0.4,0-0.6,0.2-0.9,0.4c-0.3,0.3-0.5,0.6-0.6,0.9c0,0.1,0,0.2-0.1,0.2C11.1,8,11.1,8.2,11,8.3c-0.1,0.4-0.2,0.7-0.3,1.1 c-0.1,0.3-0.2,0.5-0.4,0.8c-0.1,0.2-0.2,0.3-0.4,0.4c-0.1,0.2-0.3,0.4-0.4,0.5c0,0,0,0.1-0.1,0c0,0,0,0,0-0.1c0-0.1,0-0.1,0-0.2 c0,0,0-0.1,0-0.1c0-0.2,0-0.3,0-0.5c0.1-0.5,0-1,0.1-1.4c0,0,0-0.1,0-0.1c0-0.1,0-0.1-0.1-0.1C9.5,8.5,9.4,8.4,9.3,8.3 C9.2,8.2,9.2,8.1,9,8c0.2,0.1,0.4,0.3,0.5,0.4c0,0,0,0,0.1,0c0-0.4,0-0.7,0.1-1.1c0-0.6,0.2-1.3,0.3-1.9c0.1-0.3,0.1-0.5,0.1-0.8 c0-0.1,0-0.2,0-0.2c0,0,0,0,0-0.1c0,0,0,0,0,0C10,4.2,10.1,4.1,10,4c0,0,0,0,0-0.1c0,0-0.1-0.1-0.1-0.1c0,0,0,0,0,0c0,0,0,0,0,0 c0,0,0,0,0,0c0,0,0,0,0,0c0,0,0,0,0,0c0,0,0,0,0,0c0,0,0,0,0,0C9.9,3.7,9.8,3.6,9.8,3.4C9.5,3.1,9.2,2.9,8.9,2.8c0,0,0-0.1-0.1-0.1 C8.4,2.6,7.9,2.6,7.5,2.6c-0.1,0-0.2,0-0.2,0c0,0-0.1,0-0.1,0.1C6.8,2.9,6.5,3.1,6.3,3.4C6.2,3.6,6.1,3.8,6.1,4 c0,0.1,0,0.2-0.1,0.3c0,0.1,0,0.3,0,0.4c0,0,0,0.1,0,0.1C6,5,6,5.2,6.1,5.4c0,0.1,0,0.1,0.1,0.1c0.2-0.1,0.4-0.3,0.6-0.4 C6.7,5.2,6.5,5.3,6.4,5.4C6.3,5.5,6.3,5.5,6.2,5.6C6.1,5.7,6.1,5.9,6.2,6c0,0,0.1,0,0.1,0c0.1-0.1,0.2-0.2,0.3-0.2 C6.5,5.8,6.5,5.9,6.4,6C6.2,6.2,6.2,6.1,6.2,6.4c0,0.3,0.1,0.7,0.1,1c0,0.7,0.1,1.4,0.1,2c0,0.5,0.1,1,0,1.4c0,0,0,0.1,0,0.1 c0,0,0,0-0.1-0.1c-0.1-0.2-0.2-0.3-0.4-0.4c-0.1-0.1-0.1-0.2-0.2-0.2c0,0,0-0.1-0.1-0.1c-0.2-0.3-0.4-0.6-0.5-1 C5.2,9,5.1,8.8,5.1,8.6C5.1,8.6,5,8.5,5,8.4C4.9,8.4,4.8,8.3,4.6,8.2c0,0-0.1,0-0.1-0.1c0,0,0,0,0,0c0.1,0,0.2,0.1,0.3,0.1 c0,0,0.1,0,0.1,0c0-0.2-0.1-0.3-0.1-0.5c0-0.1,0-0.1-0.1-0.2c0,0,0,0,0,0c0,0,0,0,0,0c0,0,0,0,0,0c0,0,0-0.1,0-0.1 C4.7,7.3,4.6,7.2,4.6,7.1C4.5,7,4.4,6.9,4.3,6.8c0,0,0,0,0,0c0,0,0,0,0,0C4,6.4,3.7,6.2,3.2,6.2c0,0-0.1,0-0.1,0 c-0.3,0-0.6,0-0.9,0.2c0,0-0.1,0-0.1,0.1C2.1,6.6,2,6.8,1.9,7c0,0.2,0,0.3,0,0.5c0,0,0,0.1,0,0.1c0,0.1,0,0.3,0,0.4 c0,0.2,0,0.5,0.1,0.7C2,8.9,2,9.1,2.1,9.3c0.1,0.1,0.1,0.2,0.2,0.3c0,0,0,0,0,0.1c0.1,0.1,0.1,0.1,0.2,0C2.7,9.4,2.8,9.2,3,9 C2.9,9.1,2.9,9.2,2.8,9.3C2.7,9.5,2.7,9.6,2.6,9.8c0,0.1,0,0.1,0,0.2c0,0,0,0,0,0.1c0.1,0.1,0.1,0.1,0.2,0C2.9,9.9,3,9.8,3.1,9.7 C3,9.8,2.9,10,2.9,10.1c0,0.1,0,0.1,0,0.2c0.2,0.2,0.3,0.4,0.4,0.6c0.1,0.2,0.2,0.5,0.2,0.7c0.1,0.4,0.1,0.7,0.3,1.1 C4,13.1,4.3,13.3,4.6,13.5z M9.8,3.8C9.8,3.8,9.8,3.8,9.8,3.8C9.8,3.8,9.8,3.8,9.8,3.8C9.8,3.8,9.8,3.8,9.8,3.8z M13,9.4 c0-0.1,0-0.1-0.1-0.2c0,0,0,0,0,0c0,0,0,0,0,0.1C13,9.3,13,9.3,13,9.4z" style="fill: rgb(0, 132, 255);"/>
    <path class="st0" d="M9.8,3.8C9.8,3.8,9.8,3.8,9.8,3.8C9.8,3.8,9.8,3.8,9.8,3.8z" style="fill: rgb(0, 132, 255);"/>
    <polygon class="st0" points="9.7,4.2 9.7,4.2 9.7,4.2 &#9;" style="fill: rgb(0, 132, 255);"/>
    <path class="st0" d="M8.6,1c0.2,0.5,0.3,0.9,0.4,1.4c0,0,0,0.1,0,0.1c0,0-0.1,0-0.1,0C8.5,2.4,8.3,2.4,8,2.4c0,0,0,0-0.1,0 c-0.1,0-0.1,0-0.1-0.1c0-0.1,0-0.2,0-0.3c0-0.4,0-0.8,0.1-1.1c0,0.1,0,0.1,0,0.2C7.8,1.3,7.8,1.5,7.7,1.7C7.6,1.9,7.6,2.1,7.5,2.3 c0,0.1-0.2,0.2-0.3,0.1c0-0.5,0.2-0.9,0.4-1.4c0.1-0.3,0.3-0.6,0.4-1c0,0,0-0.1,0.1-0.1c0,0,0.1,0.1,0.1,0.1C8.3,0.4,8.4,0.7,8.6,1 z" style="fill: rgb(0, 132, 255);"/>
    <path class="st0" d="M13.6,6.2c0,0.1-0.1,0.1-0.1,0.1c-0.2-0.1-0.3-0.1-0.5-0.1c0,0-0.1,0-0.1-0.1c0,0,0-0.1,0-0.1 c0.3-0.3,0.4-0.6,0.5-0.9c0-0.1,0-0.2,0.1-0.2c0,0,0.1,0.1,0.1,0.1c0.2,0.4,0.2,0.8,0.2,1.1c0,0,0,0.1,0,0.1c-0.1,0-0.2,0-0.2-0.1 c0-0.2,0-0.5,0-0.6C13.6,5.8,13.6,6,13.6,6.2z" style="fill: rgb(0, 132, 255);"/>
    <path class="st0" d="M2.7,4.8C2.7,4.8,2.7,4.8,2.7,4.8C2.7,4.8,2.7,4.8,2.7,4.8C2.5,5,2.4,5.2,2.4,5.5c0,0.2-0.1,0.4-0.1,0.5 c0,0,0,0.1,0,0.1c0.1,0,0.1,0,0.1-0.1c0,0,0,0,0,0c0-0.2,0-0.4,0.1-0.6c0,0.2,0,0.4,0,0.5c0,0.1,0,0.1,0.1,0.1C2.9,6,3,6,3.2,6 c0,0,0.1,0,0.1,0c0,0,0-0.1-0.1-0.1C3.1,5.6,2.9,5.3,2.8,5C2.8,4.9,2.8,4.9,2.7,4.8z M2.6,5.3C2.6,5.3,2.6,5.3,2.6,5.3 C2.6,5.3,2.6,5.3,2.6,5.3C2.6,5.3,2.6,5.4,2.6,5.3z" style="fill: rgb(0, 132, 255);"/>
  </g>
</svg>